#N canvas 0 22 1194 696 10;
#X declare -lib mrpeach;
#N canvas 0 22 450 300 (subpatch) 0;
#X array beat 88200 float 2;
#X coords 0 1 88200 -1 200 140 1;
#X restore 774 239 graph;
#X msg 24 44 read -resize simple.wav beat;
#X obj 24 15 bng 15 250 50 0 empty empty empty 17 7 0 10 -262144 -1
-1;
#X obj 24 74 soundfiler;
#N canvas 0 22 450 300 (subpatch) 0;
#X array crash 88200 float 2;
#X coords 0 1 88200 -1 200 140 1;
#X restore 647 36 graph;
#X floatatom 31 401 10 0 0 0 - - -;
#X floatatom 164 91 5 0 0 0 - - -;
#X floatatom 12 213 5 0 16 0 - - -;
#X obj 31 310 expr $f1 * ($f2 / 16);
#X obj 31 284 pack f f;
#X obj 34 624 arraycopy;
#X obj 524 624 dac~;
#X obj 454 536 tabplay~ crash;
#X obj 454 444 bng 50 250 50 0 empty empty empty 17 7 0 10 -257985
-1 -1;
#X obj 31 258 expr $f1 % 16;
#X obj 31 342 abs \$1;
#X msg 1020 245 \; crash resize 88200;
#X msg 72 507 copy beat \$1 +6000 snare;
#X msg 112 539 copy beat \$1 +6000 hat;
#X msg 132 573 copy beat \$1 +6000 kick;
#N canvas 0 22 450 300 (subpatch) 0;
#X array snare 88200 float 2;
#X coords 0 1 88199 -1 200 140 1;
#X restore 886 41 graph;
#N canvas 0 22 450 300 (subpatch) 0;
#X array hat 88200 float 2;
#X coords 0 1 88199 -1 200 140 1;
#X restore 1115 43 graph;
#N canvas 0 22 450 300 (subpatch) 0;
#X array kick 88200 float 2;
#X coords 0 1 88199 -1 200 140 1;
#X restore 416 37 graph;
#X floatatom 197 399 10 0 0 0 - - -;
#X obj 197 308 expr $f1 * ($f2 / 16);
#X obj 197 282 pack f f;
#X obj 197 256 expr $f1 % 16;
#X obj 197 340 abs \$1;
#X obj 197 368 expr $f1 % (88200 - 6000);
#X floatatom 380 399 10 0 0 0 - - -;
#X obj 380 308 expr $f1 * ($f2 / 16);
#X obj 380 282 pack f f;
#X obj 380 256 expr $f1 % 16;
#X obj 380 340 abs \$1;
#X obj 380 368 expr $f1 % (88200 - 6000);
#X floatatom 559 399 10 0 0 0 - - -;
#X obj 559 308 expr $f1 * ($f2 / 16);
#X obj 559 282 pack f f;
#X obj 559 256 expr $f1 % 16;
#X obj 559 340 abs \$1;
#X obj 559 368 expr $f1 % (88200 - 6000);
#X floatatom 176 215 5 0 16 0 - - -;
#X floatatom 356 219 5 0 16 0 - - -;
#X floatatom 545 223 5 0 16 0 - - -;
#X obj 653 440 bng 50 250 50 0 empty empty empty 17 7 0 10 -258113
-1 -1;
#X obj 757 440 bng 50 250 50 0 empty empty empty 17 7 0 10 -4034 -1
-1;
#X obj 555 443 bng 50 250 50 0 empty empty empty 17 7 0 10 -4160 -1
-1;
#X obj 558 526 tabplay~ kick;
#X obj 657 530 tabplay~ snare;
#X obj 767 533 tabplay~ hat;
#X obj 31 370 expr $f1 % (88200 - 10000);
#X msg 33 466 copy beat \$1 +10000 crash;
#X msg 63 213 0;
#X msg 228 219 4;
#X msg 397 218 14;
#X msg 582 221 10;
#X obj 78 13 loadbang;
#X msg 989 436 read drums.txt;
#X obj 1017 531 qlist;
#X floatatom 1018 568 5 0 0 0 - - -;
#X obj 384 490 r crash;
#X obj 517 500 r kick;
#X obj 634 499 r snare;
#X obj 729 499 r hat;
#X obj 973 483 bng 15 250 50 0 empty empty empty 17 7 0 10 -262144
-1 -1;
#X msg 1097 464 rewind;
#X msg 1097 492 next;
#X obj 1095 603 bng 15 250 50 0 empty empty empty 17 7 0 10 -262144
-1 -1;
#X obj 12 174 r setkick;
#X obj 185 180 r setcrash;
#X obj 351 179 r setsnare;
#X obj 540 188 r sethat;
#X obj 774 640 tabplay~ beat;
#X obj 790 581 bng 15 250 50 0 empty empty empty 17 7 0 10 -262144
-1 -1;
#X msg 1098 421 tempo 3;
#X obj 165 13 import mrpeach;
#X obj 269 16 udpreceive 12000;
#X obj 269 42 unpackOSC;
#X obj 269 72 routeOSC /play;
#X obj 301 133 s;
#X obj 276 102 symbol \$1;
#X obj 345 111 print;
#X connect 1 0 3 0;
#X connect 2 0 1 0;
#X connect 3 0 6 0;
#X connect 3 0 9 1;
#X connect 3 0 25 1;
#X connect 3 0 31 1;
#X connect 3 0 37 1;
#X connect 3 0 52 0;
#X connect 3 0 53 0;
#X connect 3 0 54 0;
#X connect 3 0 55 0;
#X connect 7 0 14 0;
#X connect 8 0 15 0;
#X connect 9 0 8 0;
#X connect 12 0 11 0;
#X connect 12 0 11 1;
#X connect 13 0 12 0;
#X connect 14 0 9 0;
#X connect 15 0 50 0;
#X connect 17 0 10 0;
#X connect 18 0 10 0;
#X connect 19 0 10 0;
#X connect 24 0 27 0;
#X connect 25 0 24 0;
#X connect 26 0 25 0;
#X connect 27 0 28 0;
#X connect 28 0 23 0;
#X connect 28 0 17 0;
#X connect 30 0 33 0;
#X connect 31 0 30 0;
#X connect 32 0 31 0;
#X connect 33 0 34 0;
#X connect 34 0 29 0;
#X connect 34 0 18 0;
#X connect 36 0 39 0;
#X connect 37 0 36 0;
#X connect 38 0 37 0;
#X connect 39 0 40 0;
#X connect 40 0 35 0;
#X connect 40 0 19 0;
#X connect 41 0 26 0;
#X connect 42 0 32 0;
#X connect 43 0 38 0;
#X connect 44 0 48 0;
#X connect 45 0 49 0;
#X connect 46 0 47 0;
#X connect 47 0 11 0;
#X connect 47 0 11 1;
#X connect 48 0 11 0;
#X connect 48 0 11 1;
#X connect 49 0 11 0;
#X connect 49 0 11 1;
#X connect 50 0 5 0;
#X connect 50 0 51 0;
#X connect 51 0 10 0;
#X connect 52 0 14 0;
#X connect 53 0 26 0;
#X connect 54 0 32 0;
#X connect 55 0 38 0;
#X connect 56 0 1 0;
#X connect 57 0 58 0;
#X connect 58 0 59 0;
#X connect 58 1 67 0;
#X connect 60 0 13 0;
#X connect 61 0 46 0;
#X connect 62 0 44 0;
#X connect 63 0 45 0;
#X connect 64 0 58 0;
#X connect 65 0 58 0;
#X connect 66 0 58 0;
#X connect 68 0 7 0;
#X connect 69 0 41 0;
#X connect 70 0 42 0;
#X connect 71 0 43 0;
#X connect 72 0 11 0;
#X connect 72 0 11 1;
#X connect 73 0 72 0;
#X connect 74 0 58 0;
#X connect 76 0 77 0;
#X connect 77 0 78 0;
#X connect 78 0 80 0;
#X connect 78 0 81 0;
#X connect 80 0 79 1;
#X connect 80 0 79 0;
